<?xml version="1.0" encoding="iso-8859-1"?>
<!-- Uploaded to: SVG Repo, www.svgrepo.com, Generator: SVG Repo Mixer Tools -->
<!DOCTYPE svg PUBLIC "-//W3C//DTD SVG 1.1//EN" "http://www.w3.org/Graphics/SVG/1.1/DTD/svg11.dtd">
<svg fill="#000000" height="800px" width="800px" version="1.1" id="Capa_1" xmlns="http://www.w3.org/2000/svg" xmlns:xlink="http://www.w3.org/1999/xlink" 
	 viewBox="0 0 362.773 362.773" xml:space="preserve">
<path d="M352.497,115.088L190.654,4.236c-5.547-3.8-12.857-3.8-18.404,0L10.408,115.088c-8.854,6.855-11.002,10.787-10.277,40.319
	v137.949c0,37.513,30.52,68.03,68.033,68.03h226.58c37.51,0,68.029-30.518,68.029-68.03V155.407
	C362.773,131.81,362.773,123.501,352.497,115.088z M294.743,329.964H68.164c-20.186,0-36.609-16.422-36.609-36.607V156.445
	l140.695,96.366c2.773,1.898,5.988,2.849,9.203,2.849c3.215,0,6.428-0.95,9.201-2.849l140.695-96.366v136.911
	C331.349,313.542,314.927,329.964,294.743,329.964z"/>
</svg>